<?xml version="1.0" standalone="no"?>
<!DOCTYPE svg PUBLIC "-//W3C//DTD SVG 20010904//EN"
 "http://www.w3.org/TR/2001/REC-SVG-20010904/DTD/svg10.dtd">
<svg version="1.0" xmlns="http://www.w3.org/2000/svg"
 width="512.000000pt" height="512.000000pt" viewBox="0 0 512.000000 512.000000"
 preserveAspectRatio="xMidYMid meet">
<metadata>
Created by potrace 1.11, written by Peter Selinger 2001-2013
</metadata>
<g transform="translate(0.000000,512.000000) scale(0.100000,-0.100000)"
fill="#000000" stroke="none">
<path d="M2415 5044 c-349 -24 -713 -126 -1015 -286 -98 -52 -260 -153 -260
-163 0 -10 273 -395 280 -395 4 0 49 26 101 57 52 31 139 78 194 104 97 46
300 119 330 119 13 0 15 -118 15 -960 l0 -960 -370 0 -370 0 0 -250 0 -250
370 0 370 0 0 -714 0 -714 -82 25 c-469 143 -875 461 -1133 888 -164 272 -275
652 -275 948 l0 67 -250 0 c-137 0 -250 -3 -250 -7 0 -5 5 -75 10 -156 55
-800 480 -1514 1155 -1942 117 -74 341 -183 480 -233 370 -134 797 -180 1180
-127 634 88 1204 409 1604 905 329 408 514 897 546 1443 l7 117 -996 0 -996 0
0 961 0 961 33 -7 c128 -28 370 -135 522 -231 49 -30 89 -53 90 -52 1 2 65 94
143 205 l141 202 -87 56 c-128 83 -388 208 -539 259 -147 50 -310 89 -465 111
-106 15 -378 26 -483 19z m2065 -2999 c0 -33 -76 -238 -130 -352 -226 -474
-639 -839 -1144 -1012 -65 -23 -124 -41 -132 -41 -12 0 -14 111 -14 710 l0
710 710 0 c621 0 710 -2 710 -15z"/>
</g>
</svg>
