<?xml version="1.0" standalone="no"?>
<!DOCTYPE svg PUBLIC "-//W3C//DTD SVG 20010904//EN"
 "http://www.w3.org/TR/2001/REC-SVG-20010904/DTD/svg10.dtd">
<svg version="1.0" xmlns="http://www.w3.org/2000/svg"
 width="512.000000pt" height="512.000000pt" viewBox="0 0 512.000000 512.000000"
 preserveAspectRatio="xMidYMid meet">
<metadata>
Created by potrace 1.11, written by Peter Selinger 2001-2013
</metadata>
<g transform="translate(0.000000,512.000000) scale(0.100000,-0.100000)"
fill="#000000" stroke="none">
<path d="M2388 5045 c-2 -1 -35 -6 -73 -9 -39 -4 -80 -8 -90 -10 -11 -2 -42
-7 -68 -10 -291 -43 -664 -186 -938 -361 -8 -5 -32 -21 -52 -34 l-37 -23 34
-47 c18 -25 83 -117 143 -203 l110 -157 74 46 c41 25 121 70 179 99 147 73
373 155 387 140 4 -4 7 -1796 4 -1898 -1 -17 -25 -18 -369 -18 l-369 0 1 -247
1 -248 300 -2 c165 -1 332 -2 370 -2 l70 -1 -1 -705 c-1 -388 -4 -708 -7 -712
-9 -8 -137 33 -257 82 -495 202 -892 602 -1089 1098 -39 97 -86 256 -102 339
-6 35 -12 70 -14 78 -3 15 -16 122 -21 170 -1 14 -2 53 -3 88 l-1 62 -251 0
-250 0 5 -112 c4 -62 8 -124 10 -138 3 -14 7 -52 11 -85 3 -33 13 -94 22 -135
8 -41 17 -84 19 -95 23 -118 111 -368 184 -520 287 -601 836 -1078 1475 -1281
112 -36 273 -76 355 -89 25 -4 54 -9 65 -11 94 -19 431 -25 580 -12 69 6 149
19 280 43 235 45 546 167 770 304 520 317 903 802 1086 1375 40 125 83 317 94
416 3 30 7 66 10 80 2 14 7 78 10 143 l6 117 -996 0 -995 0 -1 23 c-4 142 0
1889 4 1894 10 9 169 -44 293 -97 111 -48 217 -105 302 -163 24 -16 45 -27 46
-25 1 1 56 80 121 173 65 94 129 184 142 202 l23 31 -88 56 c-104 67 -306 172
-417 216 -168 68 -442 140 -589 156 -33 3 -69 8 -80 11 -23 5 -422 13 -428 8z
m2085 -2984 c13 -1 8 -26 -24 -122 -43 -131 -153 -378 -178 -399 -3 -3 -12
-17 -20 -31 -24 -48 -166 -233 -237 -308 -150 -161 -358 -315 -570 -421 -118
-59 -368 -150 -380 -138 -5 5 -9 1286 -5 1400 1 11 11 18 29 20 20 2 1348 1
1385 -1z"/>
</g>
</svg>
